<svg width="68" height="58" viewBox="0 0 68 58" fill="none" xmlns="http://www.w3.org/2000/svg">
<g clip-path="url(#clip0_4_5)">
<path d="M42.9199 33.2037L52.3725 56.0689L55.7277 46.1117L65.6081 42.7297L42.9199 33.2037Z" fill="#3A9FD5" stroke="black" stroke-width="2" stroke-linecap="round" stroke-linejoin="round"/>
<path d="M56.2896 46.6777L64.3114 54.762" stroke="black" stroke-width="2" stroke-linecap="round" stroke-linejoin="round"/>
<mask id="mask0_4_5" style="mask-type:alpha" maskUnits="userSpaceOnUse" x="-8" y="-9" width="70" height="70">
<path d="M61.5385 -9H-7.69231V60.7703H61.5385V-9Z" fill="white"/>
<path d="M42.3218 43.1532C38.2262 46.8702 32.9622 49.014 27.4531 49.2085C21.9448 49.4031 16.5451 47.6358 12.2002 44.2171C7.856 40.7985 4.84639 35.9468 3.69785 30.5138C2.55008 25.0809 3.33746 19.4141 5.92254 14.5083C8.50846 9.60253 12.7258 5.77123 17.8343 3.68723C22.9436 1.60307 28.6181 1.39946 33.8615 3.11199C39.1048 4.82453 43.5814 8.34376 46.5063 13.0519C49.4312 17.76 50.6168 23.356 49.8557 28.8574L40.0608 27.4801C40.5011 24.299 39.8157 21.0631 38.1242 18.3408C36.4334 15.6184 33.8442 13.5834 30.8124 12.5931C27.7805 11.6029 24.4994 11.7207 21.5449 12.9257C18.5904 14.1308 16.1518 16.3462 14.6568 19.183C13.1628 22.0197 12.7069 25.2965 13.3709 28.438C14.0348 31.5795 15.775 34.385 18.2868 36.3618C20.7995 38.3386 23.9218 39.3605 27.1067 39.248C30.2924 39.1355 33.3365 37.8958 35.7044 35.7466L42.3218 43.1532Z" fill="black"/>
</mask>
<g mask="url(#mask0_4_5)">
<path d="M42.3218 43.1532C38.2262 46.8702 32.9622 49.014 27.4531 49.2085C21.9448 49.4031 16.5452 47.6358 12.2002 44.2171C7.85608 40.7985 4.84646 35.9468 3.69785 30.5138C2.55016 25.0809 3.33754 19.4141 5.92262 14.5083C8.50854 9.60253 12.7259 5.77123 17.8344 3.68723C22.9436 1.60307 28.6182 1.39946 33.8615 3.11199C39.1048 4.82453 43.5815 8.34376 46.5063 13.0519C49.4312 17.76 50.6168 23.356 49.8558 28.8574L40.0609 27.4801C40.5011 24.299 39.8158 21.0631 38.1242 18.3408C36.4334 15.6184 33.8442 13.5834 30.8124 12.5931C27.7805 11.6029 24.4995 11.7207 21.5449 12.9257C18.5905 14.1308 16.1518 16.3462 14.6569 19.183C13.1628 22.0197 12.707 25.2965 13.3709 28.438C14.0349 31.5795 15.775 34.385 18.2868 36.3618C20.7995 38.3386 23.9218 39.3605 27.1068 39.248C30.2925 39.1355 33.3366 37.8958 35.7045 35.7466L42.3218 43.1532Z" fill="black"/>
<path d="M42.3218 43.1532C38.2262 46.8702 32.9622 49.014 27.4531 49.2085C21.9448 49.4031 16.5452 47.6358 12.2002 44.2171C7.85608 40.7985 4.84646 35.9468 3.69785 30.5138C2.55016 25.0809 3.33754 19.4141 5.92262 14.5083C8.50854 9.60253 12.7259 5.77123 17.8344 3.68723C22.9436 1.60307 28.6182 1.39946 33.8615 3.11199C39.1048 4.82453 43.5815 8.34376 46.5063 13.0519C49.4312 17.76 50.6168 23.356 49.8558 28.8574L40.0609 27.4801C40.5011 24.299 39.8158 21.0631 38.1242 18.3408C36.4334 15.6184 33.8442 13.5834 30.8124 12.5931C27.7805 11.6029 24.4995 11.7207 21.5449 12.9257C18.5905 14.1308 16.1518 16.3462 14.6569 19.183C13.1628 22.0197 12.707 25.2965 13.3709 28.438C14.0349 31.5795 15.775 34.385 18.2868 36.3618C20.7995 38.3386 23.9218 39.3605 27.1068 39.248C30.2925 39.1355 33.3366 37.8958 35.7045 35.7466L42.3218 43.1532Z" stroke="black" stroke-width="2"/>
<path d="M26.7925 31.6491C30.2004 31.6491 32.9631 28.8649 32.9631 25.4304C32.9631 21.9959 30.2004 19.2117 26.7925 19.2117C23.3845 19.2117 20.6218 21.9959 20.6218 25.4304C20.6218 28.8649 23.3845 31.6491 26.7925 31.6491Z" fill="#3A9FD5" stroke="black" stroke-width="2"/>
</g>
</g>
<defs>
<clipPath id="clip0_4_5">
<rect width="68" height="58" fill="white"/>
</clipPath>
</defs>
</svg>
