<svg width="367" height="91" viewBox="0 0 367 91" fill="none" xmlns="http://www.w3.org/2000/svg">
<path d="M65.7959 54.8649L78.0842 84.5896L82.446 71.6453L95.2905 67.2487L65.7959 54.8649Z" fill="#3A9FD5" stroke="black" stroke-width="2" stroke-linecap="round" stroke-linejoin="round"/>
<path d="M83.1765 72.381L93.6048 82.8906" stroke="black" stroke-width="2" stroke-linecap="round" stroke-linejoin="round"/>
<mask id="mask0_120_88" style="mask-type:alpha" maskUnits="userSpaceOnUse" x="0" y="0" width="90" height="91">
<path d="M90 0H0V90.7014H90V0Z" fill="white"/>
<path d="M65.0183 67.7992C59.694 72.6312 52.8509 75.4182 45.689 75.6711C38.5282 75.9241 31.5086 73.6266 25.8602 69.1823C20.2128 64.738 16.3003 58.4308 14.8072 51.368C13.3151 44.3052 14.3387 36.9384 17.6993 30.5608C21.061 24.1833 26.5436 19.2026 33.1846 16.4934C39.8267 13.784 47.2035 13.5193 54.0199 15.7456C60.8363 17.9719 66.6558 22.5469 70.4582 28.6675C74.2605 34.788 75.8018 42.0628 74.8124 49.2146L62.0791 47.4242C62.6514 43.2887 61.7604 39.0821 59.5614 35.543C57.3634 32.0039 53.9974 29.3584 50.0561 28.0711C46.1147 26.7838 41.8492 26.9369 38.0084 28.5034C34.1675 30.0701 30.9973 32.9501 29.0539 36.6379C27.1116 40.3256 26.519 44.5854 27.3822 48.6694C28.2453 52.7534 30.5075 56.4005 33.7729 58.9703C37.0394 61.5402 41.0984 62.8687 45.2387 62.7224C49.3801 62.5761 53.3375 60.9645 56.4157 58.1706L65.0183 67.7992Z" fill="black"/>
</mask>
<g mask="url(#mask0_120_88)">
<path d="M65.0184 67.7992C59.694 72.6312 52.8509 75.4182 45.689 75.6711C38.5282 75.9241 31.5087 73.6266 25.8602 69.1823C20.2129 64.738 16.3004 58.4308 14.8072 51.368C13.3152 44.3052 14.3388 36.9384 17.6994 30.5608C21.0611 24.1833 26.5437 19.2026 33.1847 16.4934C39.8267 13.784 47.2036 13.5193 54.02 15.7456C60.8363 17.9719 66.6559 22.5469 70.4582 28.6675C74.2606 34.788 75.8018 42.0628 74.8125 49.2146L62.0792 47.4242C62.6514 43.2887 61.7605 39.0821 59.5614 35.543C57.3634 32.0039 53.9975 29.3584 50.0561 28.0711C46.1147 26.7838 41.8493 26.9369 38.0084 28.5034C34.1676 30.0701 30.9974 32.9501 29.054 36.6379C27.1116 40.3256 26.5191 44.5854 27.3822 48.6694C28.2454 52.7534 30.5075 56.4005 33.7729 58.9703C37.0394 61.5402 41.0984 62.8687 45.2388 62.7224C49.3802 62.5761 53.3376 60.9645 56.4158 58.1706L65.0184 67.7992Z" fill="black"/>
<path d="M65.0184 67.7992C59.694 72.6312 52.8509 75.4182 45.689 75.6711C38.5282 75.9241 31.5087 73.6266 25.8602 69.1823C20.2129 64.738 16.3004 58.4308 14.8072 51.368C13.3152 44.3052 14.3388 36.9384 17.6994 30.5608C21.0611 24.1833 26.5437 19.2026 33.1847 16.4934C39.8267 13.784 47.2036 13.5193 54.02 15.7456C60.8363 17.9719 66.6559 22.5469 70.4582 28.6675C74.2606 34.788 75.8018 42.0628 74.8125 49.2146L62.0792 47.4242C62.6514 43.2887 61.7605 39.0821 59.5614 35.543C57.3634 32.0039 53.9975 29.3584 50.0561 28.0711C46.1147 26.7838 41.8493 26.9369 38.0084 28.5034C34.1676 30.0701 30.9974 32.9501 29.054 36.6379C27.1116 40.3256 26.5191 44.5854 27.3822 48.6694C28.2454 52.7534 30.5075 56.4005 33.7729 58.9703C37.0394 61.5402 41.0984 62.8687 45.2388 62.7224C49.3802 62.5761 53.3376 60.9645 56.4158 58.1706L65.0184 67.7992Z" stroke="black" stroke-width="2"/>
<path d="M44.8302 52.8438C49.2605 52.8438 52.852 49.2244 52.852 44.7595C52.852 40.2947 49.2605 36.6752 44.8302 36.6752C40.3998 36.6752 36.8083 40.2947 36.8083 44.7595C36.8083 49.2244 40.3998 52.8438 44.8302 52.8438Z" fill="#3A9FD5" stroke="black" stroke-width="2"/>
</g>
<path d="M117.226 64.4988C115.381 64.4988 113.607 64.1918 111.903 63.5787C110.224 62.9656 108.923 62.156 108 61.1498L109.029 59.0522C109.928 59.9847 111.123 60.745 112.613 61.3338C114.104 61.8984 115.641 62.1803 117.226 62.1803C119.45 62.1803 121.118 61.7629 122.23 60.929C123.342 60.0701 123.898 58.966 123.898 57.6169C123.898 56.5865 123.59 55.7643 122.975 55.1512C122.384 54.5381 121.65 54.0714 120.775 53.7527C119.9 53.409 118.681 53.041 117.12 52.6487C115.251 52.1578 113.761 51.6919 112.649 51.2502C111.537 50.7843 110.579 50.0851 109.774 49.1526C108.994 48.22 108.603 46.957 108.603 45.362C108.603 44.0615 108.934 42.8838 109.597 41.8291C110.259 40.7493 111.277 39.8911 112.649 39.253C114.021 38.6151 115.724 38.2961 117.759 38.2961C119.178 38.2961 120.562 38.5047 121.911 38.9218C123.283 39.3141 124.466 39.8661 125.459 40.5778L124.572 42.7491C123.531 42.0374 122.419 41.5104 121.236 41.1667C120.053 40.7986 118.894 40.6146 117.759 40.6146C115.582 40.6146 113.938 41.0563 112.826 41.9395C111.738 42.7984 111.194 43.9142 111.194 45.2884C111.194 46.3189 111.489 47.1528 112.081 47.7909C112.696 48.404 113.453 48.8824 114.352 49.2262C115.275 49.5449 116.505 49.9011 118.043 50.2934C119.864 50.7593 121.331 51.226 122.443 51.6919C123.578 52.1335 124.537 52.8202 125.317 53.7527C126.098 54.6603 126.488 55.8997 126.488 57.4697C126.488 58.7703 126.145 59.9597 125.459 61.0394C124.797 62.0942 123.768 62.9406 122.372 63.5787C120.976 64.1918 119.261 64.4988 117.226 64.4988ZM136.689 40.8722H127.96V38.517H148.045V40.8722H139.315V64.278H136.689V40.8722ZM169.806 61.9227V64.278H152.24V38.517H169.274V40.8722H154.866V50.0358H167.712V52.3543H154.866V61.9227H169.806ZM196.285 38.517L185.284 64.278H182.693L171.693 38.517H174.532L184.042 60.8922L193.623 38.517H196.285ZM199.89 38.517H202.516V64.278H199.89V38.517ZM228.164 61.9227V64.278H210.598V38.517H227.632V40.8722H213.224V50.0358H226.07V52.3543H213.224V61.9227H228.164ZM246.25 40.8722V50.9926H259.096V53.3479H246.25V64.278H243.624V38.517H260.657V40.8722H246.25ZM283.043 64.278L277.365 55.9976C276.726 56.0712 276.063 56.108 275.378 56.108H268.706V64.278H266.08V38.517H275.378C278.547 38.517 281.031 39.3023 282.83 40.8722C284.627 42.4422 285.527 44.6017 285.527 47.3493C285.527 49.3609 285.03 51.0662 284.036 52.4647C283.066 53.8389 281.67 54.8325 279.849 55.4456L285.917 64.278H283.043ZM275.307 53.7895C277.767 53.7895 279.647 53.225 280.949 52.0967C282.25 50.9683 282.901 49.3859 282.901 47.3493C282.901 45.2641 282.25 43.6692 280.949 42.5651C279.647 41.4368 277.767 40.8722 275.307 40.8722H268.706V53.7895H275.307ZM307.303 57.3961H293.463L290.483 64.278H287.75L299.106 38.517H301.696L313.052 64.278H310.284L307.303 57.3961ZM306.345 55.188L300.383 41.3507L294.422 55.188H306.345ZM337.92 38.517V64.278H335.755L319.786 43.3747V64.278H317.16V38.517H319.325L335.329 59.4202V38.517H337.92ZM353.728 52.1703L348.654 57.5065V64.278H346.028V38.517H348.654V54.084L363.238 38.517H366.255L355.502 50.183L367 64.278H363.877L353.728 52.1703Z" fill="white"/>
</svg>
