<svg width="68" height="60" viewBox="0 0 68 60" fill="none" xmlns="http://www.w3.org/2000/svg">
<path d="M44 35L53.4525 57.8652L56.8078 47.908L66.6882 44.526L44 35Z" fill="#3A9FD5" stroke="black" stroke-width="2" stroke-linecap="round" stroke-linejoin="round"/>
<path d="M57.3697 48.4739L65.3915 56.5582" stroke="black" stroke-width="2" stroke-linecap="round" stroke-linejoin="round"/>
<path d="M42.1382 43.1924C38.0425 46.9093 32.7785 49.0531 27.2694 49.2477C21.7611 49.4423 16.3615 47.675 12.0165 44.2563C7.67239 40.8376 4.66278 35.9859 3.51416 30.553C2.36647 25.12 3.15385 19.4533 5.73893 14.5474C8.32485 9.64166 12.5422 5.81035 17.6507 3.72635C22.7599 1.6422 28.4345 1.43858 33.6779 3.15112C38.9212 4.86366 43.3978 8.38289 46.3226 13.091C49.2475 17.7991 50.4331 23.3951 49.6721 28.8965L39.8772 27.5193C40.3174 24.3381 39.6321 21.1023 37.9405 18.3799C36.2497 15.6575 33.6605 13.6225 30.6287 12.6323C27.5969 11.642 24.3158 11.7598 21.3612 12.9648C18.4068 14.17 15.9682 16.3853 14.4732 19.2221C12.9791 22.0588 12.5233 25.3356 13.1872 28.4771C13.8512 31.6187 15.5913 34.4241 18.1032 36.4009C20.6159 38.3777 23.7382 39.3997 26.9231 39.2871C30.1088 39.1746 33.1529 37.9349 35.5208 35.7857L42.1382 43.1924Z" fill="black"/>
<path d="M42.1382 43.1924C38.0425 46.9093 32.7785 49.0531 27.2694 49.2477C21.7611 49.4423 16.3615 47.675 12.0165 44.2563C7.67239 40.8376 4.66278 35.9859 3.51416 30.553C2.36647 25.12 3.15385 19.4533 5.73893 14.5474C8.32485 9.64166 12.5422 5.81035 17.6507 3.72635C22.7599 1.6422 28.4345 1.43858 33.6779 3.15112C38.9212 4.86366 43.3978 8.38289 46.3226 13.091C49.2475 17.7991 50.4331 23.3951 49.6721 28.8965L39.8772 27.5193C40.3174 24.3381 39.6321 21.1023 37.9405 18.3799C36.2497 15.6575 33.6605 13.6225 30.6287 12.6323C27.5969 11.642 24.3158 11.7598 21.3612 12.9648C18.4068 14.17 15.9682 16.3853 14.4732 19.2221C12.9791 22.0588 12.5233 25.3356 13.1872 28.4771C13.8512 31.6187 15.5913 34.4241 18.1032 36.4009C20.6159 38.3777 23.7382 39.3997 26.9231 39.2871C30.1088 39.1746 33.1529 37.9349 35.5208 35.7857L42.1382 43.1924Z" stroke="black" stroke-width="2"/>
<path d="M26.6088 31.6882C30.0167 31.6882 32.7794 28.904 32.7794 25.4695C32.7794 22.035 30.0167 19.2508 26.6088 19.2508C23.2008 19.2508 20.4381 22.035 20.4381 25.4695C20.4381 28.904 23.2008 31.6882 26.6088 31.6882Z" fill="#3A9FD5" stroke="black" stroke-width="2"/>
</svg>
