<svg width="15" height="12" viewBox="0 0 15 12" fill="none" xmlns="http://www.w3.org/2000/svg">
<path d="M0.400002 3.6456V9.6C0.400002 10.2365 0.652858 10.847 1.10295 11.2971C1.55303 11.7471 2.16348 12 2.8 12H12.4C13.0365 12 13.647 11.7471 14.0971 11.2971C14.5471 10.847 14.8 10.2365 14.8 9.6V2.4C14.8 1.76348 14.5471 1.15303 14.0971 0.702944C13.647 0.252856 13.0365 0 12.4 0H2.8C2.16348 0 1.55303 0.252856 1.10295 0.702944C0.652858 1.15303 0.400002 1.76348 0.400002 2.4V3.6456ZM2.8 1.2H12.4C12.7183 1.2 13.0235 1.32643 13.2485 1.55147C13.4736 1.77652 13.6 2.08174 13.6 2.4V3.288L7.6 6.5184L1.6 3.288V2.4C1.6 2.08174 1.72643 1.77652 1.95147 1.55147C2.17652 1.32643 2.48174 1.2 2.8 1.2V1.2ZM1.6 4.6512L7.3156 7.728C7.40301 7.77505 7.50073 7.79969 7.6 7.79969C7.69927 7.79969 7.79699 7.77505 7.8844 7.728L13.6 4.6512V9.6C13.6 9.91826 13.4736 10.2235 13.2485 10.4485C13.0235 10.6736 12.7183 10.8 12.4 10.8H2.8C2.48174 10.8 2.17652 10.6736 1.95147 10.4485C1.72643 10.2235 1.6 9.91826 1.6 9.6V4.6512Z" fill="black"/>
</svg>
