<svg width="13" height="12" viewBox="0 0 13 12" fill="none" xmlns="http://www.w3.org/2000/svg">
<path d="M2.86667 1.33333C2.86667 2.04133 2.39333 2.65067 1.53267 2.65067C0.722667 2.65067 0.200001 2.076 0.200001 1.368C0.200001 0.641333 0.706667 0 1.53333 0C2.36 0 2.85067 0.606667 2.86667 1.33333ZM0.200001 12V3.33333H2.86667V12H0.200001ZM4.2 6.296C4.2 5.266 4.166 4.40533 4.132 3.662H6.528L6.64667 4.81067H6.69733C7.03467 4.27 7.86133 3.47733 9.24533 3.47733C10.9333 3.47733 12.2 4.60733 12.2 7.03867V12H9.53333V7.426C9.53333 6.36333 9.12867 5.55267 8.2 5.55267C7.492 5.55267 7.13733 6.126 6.95133 6.59867C6.88333 6.768 6.86667 7.004 6.86667 7.24067V12H4.2V6.296Z" fill="black"/>
</svg>
